<svg width="62" height="72" viewBox="0 0 62 72" fill="none" xmlns="http://www.w3.org/2000/svg">
<path d="M59.4521 17.7075L30.7788 34.5414L25.0061 31.1739L47.9442 17.7075L42.1724 14.3408L19.2342 27.8073L1.91785 17.7075L30.5911 0.873535L36.363 4.24015L13.424 17.7075L19.1967 21.0741L42.1348 7.60676L59.4521 17.7075Z" fill="#2874A6"/>
<path d="M28.7671 37.8024L28.7493 44.4609L5.80919 31.078L5.79054 37.7364L28.7298 51.1193L28.6739 71.0948L0 54.3672L0.0186436 47.7088L22.9579 61.0908L22.9766 54.4323L0.0372873 41.0503L0.0932182 21.074L28.7671 37.8024Z" fill="#1B4F72"/>
<path d="M61.2767 21.074L61.2953 27.7325L38.356 41.1145L38.3747 47.773L61.314 34.3909L61.3699 54.3664L32.696 71.0948L32.6774 64.4363L55.6167 51.0534L55.598 44.3949L32.6587 57.7778L32.6028 37.8015L61.2767 21.074Z" fill="#5DADE2"/>
</svg>
